<svg xmlns="http://www.w3.org/2000/svg" width="151" height="117.957" viewBox="0 0 151 117.957">
  <g id="Group_1733" data-name="Group 1733" transform="translate(-112 -288.433)">
    <g id="Group_1614" data-name="Group 1614" transform="translate(8.742 -5)">
      <circle id="Ellipse_297" data-name="Ellipse 297" cx="2.39" cy="2.39" r="2.39" transform="translate(165.258 406.61)" fill="#fff"/>
      <circle id="Ellipse_298" data-name="Ellipse 298" cx="2.39" cy="2.39" r="2.39" transform="translate(176.61 406.61)" fill="#fff"/>
      <circle id="Ellipse_299" data-name="Ellipse 299" cx="2.39" cy="2.39" r="2.39" transform="translate(187.962 406.61)" fill="#fff"/>
    </g>
    <g id="Group_1630" data-name="Group 1630" transform="translate(-65.325 151.75)">
      <g id="Group_1629" data-name="Group 1629" transform="translate(229.325 136.683)">
        <path id="Path_1470" data-name="Path 1470" d="M232.229,158.956c4.3-10.566,15.391-20.711,28.466-22.176,8.9-.8,5.382,10.164,5.382,10.164-14.517-2.965-33.982,22.8-19.823,24.7C238.126,178.813,225.666,175.068,232.229,158.956Z" transform="translate(-229.711 -136.703)" fill="#d8d8d8"/>
        <path id="Path_1471" data-name="Path 1471" d="M269.189,149.4s1.834-3.131,1.672-5.694c-4.105-.817-21.5-.4-30.417,19.548-2.427,5.428-2.277,13.085,3.021,14.087a14.424,14.424,0,0,0,5.9-3.241C235.418,172.31,254.189,146.661,269.189,149.4Z" transform="translate(-232.823 -139.159)" fill="#c4c4c4" opacity="0.25" style="mix-blend-mode: multiply;isolation: isolate"/>
        <path id="Path_1472" data-name="Path 1472" d="M231.4,177.645c-2.683,13.163,7.605,15.473,15.066,8.893a7.3,7.3,0,0,1-2.874-.913C242.342,186.36,229.241,189.084,231.4,177.645Z" transform="translate(-229.921 -151.597)" fill="#d8d8d8" opacity="0.71" style="mix-blend-mode: multiply;isolation: isolate"/>
        <path id="Path_1473" data-name="Path 1473" d="M279.11,136.744c5.912,2.183,2.531,8.569,1.5,9.858a15.671,15.671,0,0,1,3.209.343S287.147,136.553,279.11,136.744Z" transform="translate(-247.451 -136.704)" fill="#ebebeb" opacity="0.71" style="mix-blend-mode: multiply;isolation: isolate"/>
        <path id="Path_1474" data-name="Path 1474" d="M260.969,151.857c-10.629-.2-19,18.339-.6,11.8C252.974,163.756,253.666,156.532,260.969,151.857Z" transform="translate(-236.683 -142.207)" fill="#d8d8d8"/>
        <path id="Path_1475" data-name="Path 1475" d="M262.689,151.908c-7.513,2.382-12.308,12.963-3.735,12.719a29.932,29.932,0,0,0,3.187-.953C254.758,163.775,255.432,156.584,262.689,151.908Z" transform="translate(-238.45 -142.227)" fill="#d8d8d8" opacity="0.25" style="mix-blend-mode: multiply;isolation: isolate"/>
        <path id="Path_1476" data-name="Path 1476" d="M249.7,165.37c-.89,3.639,1.728,6.385,10.674,3.206a6.9,6.9,0,0,1-3.368-.68C256.449,168.521,250.153,170.872,249.7,165.37Z" transform="translate(-236.684 -147.128)" fill="#d8d8d8" opacity="0.71" style="mix-blend-mode: multiply;isolation: isolate"/>
        <path id="Path_1477" data-name="Path 1477" d="M249.665,154.626c-1.751,6.115,1.292,15.827,16.29,8.2,16.58-8.43,14.918-27.5,1.6-26.068,9.743-.312,4.96,11.308-.169,15.749C261.248,157.822,248.377,163.253,249.665,154.626Z" transform="translate(-236.569 -136.683)" fill="#f5f5f5"/>
        <path id="Path_1478" data-name="Path 1478" d="M264.189,160.047c12.682-6.149,16.848-23.893,3.365-23.253,9.743-.312,4.96,11.308-.169,15.749-6.136,5.313-19.008,10.744-17.719,2.118a11.313,11.313,0,0,0-.172,5.579C251.589,163.065,256,164.017,264.189,160.047Z" transform="translate(-236.57 -136.718)" fill="#fff" opacity="0.28" style="mix-blend-mode: screen;isolation: isolate"/>
        <path id="Path_1479" data-name="Path 1479" d="M249.648,160.638c2.1,2.825,6.591,3.941,14.7-.193,11.088-5.655,15.438-19.076,7.894-22.576" transform="translate(-236.724 -137.115)" fill="none" stroke="#707070" stroke-miterlimit="10" stroke-width="1" opacity="0.28" style="mix-blend-mode: screen;isolation: isolate"/>
        <path id="Path_1480" data-name="Path 1480" d="M231.843,171.677c-6.651,15.652.043,29.042,18.1,18.337,15.673-9.29,18.048-3.538,15.512,1.251-3.632,6.859-15.574,15.12-22.491,18.3,11.02-2.624,29.093-11.624,32.849-23.823,3.477-11.294-6.882-14.063-16.811-8.965C251.322,180.72,223.607,196.827,231.843,171.677Z" transform="translate(-229.325 -149.424)" fill="#d8d8d8"/>
        <path id="Path_1481" data-name="Path 1481" d="M259.108,176.775c-7.683,3.945-35.4,20.1-27.163-5.1a33.824,33.824,0,0,0-1.872,5.721c-4.051,23.83,19.468,9.846,26.38,5.5,11.809-7.425,18.315-2.734,14.372,5.844-3.873,8.421-14.639,15.924-27.755,20.821,11.02-2.624,29.093-11.624,32.849-23.823C279.4,174.446,269.036,171.677,259.108,176.775Z" transform="translate(-229.428 -149.424)" fill="#d8d8d8" opacity="0.28" style="mix-blend-mode: screen;isolation: isolate"/>
        <path id="Path_1482" data-name="Path 1482" d="M243.07,212.838c13.116-4.9,23.883-12.4,27.755-20.821,3.943-8.578-2.563-13.269-14.372-5.844-6.912,4.346-30.431,18.331-26.38-5.5" transform="translate(-229.428 -152.7)" fill="none" stroke="#d8d8d8" stroke-miterlimit="10" stroke-width="1" opacity="0.28" style="mix-blend-mode: screen;isolation: isolate"/>
        <g id="Group_1628" data-name="Group 1628" transform="translate(1.29 46.753)">
          <path id="Path_1483" data-name="Path 1483" d="M255.224,212.946c-18.075,12.921-33.542,12.271-16.5-2.74C236.53,214.1,245.875,216.846,255.224,212.946Z" transform="translate(-231.354 -210.206)" fill="#ebebeb"/>
          <path id="Path_1484" data-name="Path 1484" d="M255.224,212.954c-10.676,6.976-26.543,9.394-16.518-2.726C221.692,225.225,237.155,225.871,255.224,212.954Z" transform="translate(-231.354 -210.214)" fill="#f5f5f5" opacity="0.28" style="mix-blend-mode: screen;isolation: isolate"/>
        </g>
      </g>
    </g>
    <text id="Bontang_Sehat" data-name="Bontang Sehat" transform="translate(112 375.5)" fill="#fff" font-size="20" font-family="Poppins-SemiBold, Poppins" font-weight="600"><tspan x="0" y="0">Bontang Sehat</tspan></text>
  </g>
</svg>
